<?xml version="1.0" standalone="no"?>
<!DOCTYPE svg PUBLIC "-//W3C//DTD SVG 20010904//EN"
 "http://www.w3.org/TR/2001/REC-SVG-20010904/DTD/svg10.dtd">
<svg version="1.0" xmlns="http://www.w3.org/2000/svg"
 width="299.000000pt" height="252.000000pt" viewBox="0 0 299.000000 252.000000"
 preserveAspectRatio="xMidYMid meet">

<g transform="translate(0.000000,252.000000) scale(0.100000,-0.100000)"
fill="#000000" stroke="none">
<path d="M1160 1935 l-515 -515 -3 -653 -2 -652 265 265 265 265 0 388 0 387
388 -2 387 -3 -2 -643 c-1 -353 1 -642 5 -642 4 0 121 114 259 252 l253 253 0
652 0 653 -391 0 -390 0 3 255 c2 140 1 255 -2 255 -3 0 -237 -232 -520 -515z"/>
</g>
</svg>
